<?xml version="1.0" encoding="utf-8"?>
<!-- Generator: Adobe Illustrator 21.1.0, SVG Export Plug-In . SVG Version: 6.00 Build 0)  -->
<svg version="1.1" baseProfile="basic" id="Layer_1"
	 xmlns="http://www.w3.org/2000/svg" xmlns:xlink="http://www.w3.org/1999/xlink" x="0px" y="0px" viewBox="0 0 367.1 442.4"
	 xml:space="preserve">
<path style="fill:#231F20;" d="M51.9,220.1c0,0,69.5,115.8-13.7,146.3c0,0,38-13.3,66.3-6.3c0,0,17.2,37,9.5,57.9
	c0,0,17.9-69.5,60-56.8c0,0,121.7,36,74.5-45.7C248.5,315.4,135.1,150.6,51.9,220.1z"/>
<g>
	<path style="fill:#CC1B28;stroke:#231F20;stroke-miterlimit:10;" d="M71,139.6c0,0,69.9-148.6,168.4-73.7
		C340.4,142.8,311,204.9,311,204.9l-17.9,15.8c0,0-15.8,167.4-86.3,61.1s-156.8-60-156.8-60S38.3,187,71,139.6z"/>
	<circle style="fill:#ED1C24;stroke:#231F20;stroke-miterlimit:10;" cx="113.6" cy="82.1" r="12.1"/>
	<circle style="fill:#ED1C24;stroke:#231F20;stroke-miterlimit:10;" cx="160.2" cy="59.3" r="14.4"/>
	<circle style="fill:#ED1C24;stroke:#231F20;stroke-miterlimit:10;" cx="261" cy="88.4" r="18.4"/>
	<circle style="fill:#ED1C24;stroke:#231F20;stroke-miterlimit:10;" cx="189.4" cy="126.3" r="19.5"/>
	<circle style="fill:#ED1C24;stroke:#231F20;stroke-miterlimit:10;" cx="256.8" cy="168.4" r="22.6"/>
	<circle style="fill:#ED1C24;stroke:#231F20;stroke-miterlimit:10;" cx="301.4" cy="139.9" r="13.6"/>
	<circle style="fill:#ED1C24;stroke:#231F20;stroke-miterlimit:10;" cx="87.3" cy="164.4" r="11"/>
	<circle style="fill:#ED1C24;stroke:#231F20;stroke-miterlimit:10;" cx="109.1" cy="124" r="10.8"/>
	<circle style="fill:#ED1C24;stroke:#231F20;stroke-miterlimit:10;" cx="149.8" cy="174.8" r="10.4"/>
	<circle style="fill:#ED1C24;stroke:#231F20;stroke-miterlimit:10;" cx="204" cy="213" r="14.6"/>
	<circle style="fill:#ED1C24;stroke:#231F20;stroke-miterlimit:10;" cx="274.2" cy="266.8" r="23.2"/>
	<circle style="fill:#ED1C24;stroke:#231F20;stroke-miterlimit:10;" cx="200" cy="277" r="18.6"/>
	<circle style="fill:#ED1C24;stroke:#231F20;stroke-miterlimit:10;" cx="129.7" cy="220.7" r="16.1"/>
	<circle style="fill:#ED1C24;stroke:#231F20;stroke-miterlimit:10;" cx="81.8" cy="210.2" r="5.5"/>
	<circle style="fill:#ED1C24;stroke:#231F20;stroke-miterlimit:10;" cx="51.5" cy="183.7" r="8.9"/>
	<circle style="fill:#ED1C24;stroke:#231F20;stroke-miterlimit:10;" cx="77" cy="134.2" r="10.2"/>
	<circle style="fill:#ED1C24;stroke:#231F20;stroke-miterlimit:10;" cx="212.7" cy="51" r="12.6"/>
	<circle style="fill:#ED1C24;stroke:#231F20;stroke-miterlimit:10;" cx="145.8" cy="100.5" r="6.3"/>
	<circle style="fill:#ED1C24;stroke:#231F20;stroke-miterlimit:10;" cx="229.7" cy="111.3" r="4.4"/>
</g>
<circle style="fill:#231F20;stroke:#F1F2F2;stroke-miterlimit:10;" cx="246.9" cy="158.1" r="38.7"/>
<circle style="fill:#F1F2F2;" cx="265.2" cy="166.1" r="19.3"/>
</svg>
